<?xml version="1.0" encoding="utf-8"?>
<!-- Generator: Adobe Illustrator 25.3.1, SVG Export Plug-In . SVG Version: 6.00 Build 0)  -->
<svg version="1.1" id="_ÎÓÈ_1" xmlns="http://www.w3.org/2000/svg" xmlns:xlink="http://www.w3.org/1999/xlink" x="0px" y="0px"
	 viewBox="0 0 365.8 448.6" style="enable-background:new 0 0 365.8 448.6;" xml:space="preserve">
<style type="text/css">
	.st0{fill:#231F20;}
	.st1{fill:#FF8E00;}
	.st2{fill:#70F700;}
</style>
<g>
	<path class="st0" d="M251.7,349.9l-6.9-9.6L216,361l-20.7-28.8l28.8-20.7l-6.9-9.6l-38.4,27.6l-48.2-67.2l9.6-6.9l-6.9-9.6
		l-19.2,13.8l62,86.4l9.6-6.9l27.6,38.4l9.6-6.9l13.8,19.2l9.6-6.9l-13.8-19.2L251.7,349.9z M269.6,395.2L255.8,376l-9.6,6.9
		l20.7,28.8l9.6-6.9l13.8,19.2l9.6-6.9l-20.7-28.8L269.6,395.2z M299.9,417.1l13.8,19.2l9.6-6.9l-13.8-19.2L299.9,417.1z M323,327.8
		l-9.6,6.9l20.7,28.8l-9.6,6.9l20.7,28.8l-9.6,6.9l13.8,19.2l-9.6,6.9l-6.9-9.6l-9.6,6.9l13.8,19.2l28.8-20.6L352,408.8l9.6-6.9
		L341,373l9.6-6.9l-20.7-28.8l9.6-6.9L312,292.1l-9.6,6.9L323,327.8z M238.9,170l27.5,38.4l-9.6,6.9l-6.9-9.6l-28.8,20.7l6.9,9.6
		l19.2-13.8l6.9,9.6l19.2-13.8l6.9,9.6l-38.4,27.5l6.9,9.6l28.8-20.7l34.4,48l9.6-6.9L294,246.8l9.6-6.9l-55.1-76.8L238.9,170z
		 M145.7,222.4l67.2-48.2l6.9,9.6l19.2-13.8l-6.9-9.6l-9.6,6.9l-6.9-9.6l9.6-6.9l-34.4-48l-28.8,20.7l-6.9-9.6l-38.4,27.6l6.9,9.6
		l-38.4,27.6l27.5,38.4l9.6-6.9l13.8,19.2l-9.6,6.9l6.9,9.6l19.2-13.8L145.7,222.4z M133.2,144.2l19.2-13.8l20.7,28.8l9.6-6.9
		l-13.8-19.2l19.2-13.8l20.7,28.8l-9.6,6.9l6.9,9.6l-19.2,13.8L173,159.2l-9.6,6.9l13.7,19.2l-9.6,6.9L133.2,144.2z M101.7,181.3
		l28.8-20.7L158,199l-19.2,13.8L125,193.6l-9.6,6.9L101.7,181.3z"/>
	<polygon class="st1" points="219.7,183.8 212.8,174.2 145.7,222.4 152.5,232 133.4,245.8 140.2,255.4 130.6,262.3 178.8,329.5 
		217.2,301.9 224.1,311.5 195.3,332.2 216,361 244.8,340.3 251.7,349.9 232.5,363.7 246.2,382.9 255.8,376 269.6,395.2 279.2,388.3 
		299.9,417.1 309.5,410.2 323.2,429.4 332.8,422.5 339.7,432.1 349.3,425.2 335.6,406 345.2,399.1 324.5,370.3 334.1,363.4 
		313.4,334.7 323,327.8 302.4,299 312,292.1 277.5,244.1 248.7,264.8 241.9,255.2 280.2,227.6 273.4,218 254.2,231.8 247.3,222.2 
		228.1,236 221.2,226.4 250,205.7 256.9,215.3 266.5,208.4 238.9,170 	"/>
	
		<rect x="68.5" y="186.9" transform="matrix(0.8131 -0.5822 0.5822 0.8131 -98.3593 79.3434)" class="st0" width="11.8" height="11.8"/>
	
		<rect x="77.9" y="180.9" transform="matrix(0.8125 -0.583 0.583 0.8125 -93.2143 83.8753)" class="st0" width="11.8" height="11.8"/>
	
		<rect x="51.8" y="185.1" transform="matrix(0.8125 -0.583 0.583 0.8125 -100.5361 69.4496)" class="st0" width="11.8" height="11.8"/>
	
		<rect x="42.2" y="192" transform="matrix(0.8125 -0.583 0.583 0.8125 -106.3506 65.1502)" class="st0" width="11.8" height="11.8"/>
	
		<rect x="25.7" y="189.3" transform="matrix(0.8125 -0.583 0.583 0.8125 -107.8643 55.0284)" class="st0" width="11.8" height="11.8"/>
	
		<rect x="16.1" y="196.2" transform="matrix(0.8125 -0.583 0.583 0.8125 -113.6818 50.7313)" class="st0" width="11.8" height="11.8"/>
	
		<rect x="9.2" y="186.6" transform="matrix(0.8125 -0.583 0.583 0.8125 -109.3739 44.9155)" class="st0" width="11.8" height="11.8"/>
	<rect x="2.3" y="177" transform="matrix(0.8125 -0.583 0.583 0.8125 -105.0709 39.0961)" class="st0" width="11.8" height="11.8"/>
	
		<rect x="11.9" y="170.1" transform="matrix(0.8125 -0.583 0.583 0.8125 -99.2552 43.404)" class="st0" width="11.8" height="11.8"/>
	
		<rect x="5.1" y="160.5" transform="matrix(0.8125 -0.583 0.583 0.8125 -94.9531 37.5901)" class="st0" width="11.8" height="11.8"/>
	
		<rect x="14.6" y="153.6" transform="matrix(0.8125 -0.583 0.583 0.8125 -89.1392 41.8922)" class="st0" width="11.8" height="11.8"/>
	
		<rect x="24.2" y="146.7" transform="matrix(0.8125 -0.583 0.583 0.8125 -83.3283 46.1964)" class="st0" width="11.8" height="11.8"/>
	
		<rect x="17.4" y="137.1" transform="matrix(0.8125 -0.583 0.583 0.8125 -79.0204 40.3807)" class="st0" width="11.8" height="11.8"/>
	<rect x="27" y="130.2" transform="matrix(0.8125 -0.583 0.583 0.8125 -73.2047 44.6886)" class="st0" width="11.8" height="11.8"/>
	
		<rect x="36.5" y="123.3" transform="matrix(0.8125 -0.583 0.583 0.8125 -67.3921 48.9821)" class="st0" width="11.8" height="11.8"/>
	<rect x="46.1" y="116.5" transform="matrix(0.8125 -0.583 0.583 0.8125 -61.5763 53.29)" class="st0" width="11.8" height="11.8"/>
	<rect x="53" y="126.1" transform="matrix(0.8125 -0.583 0.583 0.8125 -65.8842 59.1058)" class="st0" width="11.8" height="11.8"/>
	
		<rect x="62.6" y="119.2" transform="matrix(0.8125 -0.583 0.583 0.8125 -60.071 63.4172)" class="st0" width="11.8" height="11.8"/>
	
		<rect x="69.5" y="128.8" transform="matrix(0.8125 -0.583 0.583 0.8125 -64.3834 69.2278)" class="st0" width="11.8" height="11.8"/>
	
		<rect x="76.4" y="138.4" transform="matrix(0.8125 -0.583 0.583 0.8125 -68.6832 75.046)" class="st0" width="11.8" height="11.8"/>
	<rect x="86" y="131.5" transform="matrix(0.8125 -0.583 0.583 0.8125 -62.8708 79.3477)" class="st0" width="11.8" height="11.8"/>
	
		<rect x="95.6" y="124.6" transform="matrix(0.8125 -0.583 0.583 0.8125 -57.0557 83.6497)" class="st0" width="11.8" height="11.8"/>
	
		<rect x="105.2" y="117.7" transform="matrix(0.8125 -0.583 0.583 0.8125 -51.2375 87.9495)" class="st0" width="11.8" height="11.8"/>
	<rect x="88.7" y="115" transform="matrix(0.8125 -0.583 0.583 0.8125 -52.7451 77.8332)" class="st0" width="11.8" height="11.8"/>
	
		<rect x="102.5" y="134.2" transform="matrix(0.8125 -0.583 0.583 0.8125 -61.3554 89.4679)" class="st0" width="11.8" height="11.8"/>
	
		<rect x="109.4" y="143.8" transform="matrix(0.8125 -0.583 0.583 0.8125 -65.6629 95.2821)" class="st0" width="11.8" height="11.8"/>
	
		<rect x="157.4" y="109.4" transform="matrix(0.8125 -0.583 0.583 0.8125 -36.5915 116.7999)" class="st0" width="11.8" height="11.8"/>
	
		<rect x="160.1" y="92.9" transform="matrix(0.8125 -0.583 0.583 0.8125 -26.4771 115.2865)" class="st0" width="11.8" height="11.8"/>
	
		<rect x="162.8" y="76.4" transform="matrix(0.8125 -0.583 0.583 0.8125 -16.3573 113.7739)" class="st0" width="11.8" height="11.8"/>
	
		<rect x="155.9" y="66.8" transform="matrix(0.8125 -0.583 0.583 0.8125 -12.0485 107.9682)" class="st0" width="11.8" height="11.8"/>
	
		<rect x="165.5" y="59.9" transform="matrix(0.8125 -0.583 0.583 0.8125 -6.2352 112.2644)" class="st0" width="11.8" height="11.8"/>
	
		<rect x="203.9" y="32.4" transform="matrix(0.8125 -0.583 0.583 0.8125 17.0211 129.4802)" class="st0" width="11.8" height="11.8"/>
	
		<rect x="220.4" y="35.1" transform="matrix(0.8125 -0.583 0.583 0.8125 18.5337 139.6001)" class="st0" width="11.8" height="11.8"/>
	<rect x="230" y="28.2" transform="matrix(0.8125 -0.583 0.583 0.8125 24.3501 143.9106)" class="st0" width="11.8" height="11.8"/>
	
		<rect x="236.9" y="37.8" transform="matrix(0.8125 -0.583 0.583 0.8125 20.0413 149.7163)" class="st0" width="11.8" height="11.8"/>
	
		<rect x="234.2" y="54.3" transform="matrix(0.8125 -0.583 0.583 0.8125 9.9233 151.2347)" class="st0" width="11.8" height="11.8"/>
	
		<rect x="231.4" y="70.8" transform="matrix(0.8125 -0.583 0.583 0.8125 -0.1929 152.7424)" class="st0" width="11.8" height="11.8"/>
	<polygon class="st2" points="113.9,157.9 107,148.4 100.2,138.8 90.6,145.6 81,152.5 74.1,142.9 67.2,133.3 57.6,140.2 50.7,130.6 
		41.1,137.5 31.5,144.4 38.4,154 28.8,160.9 19.2,167.8 26.1,177.4 16.5,184.3 23.4,193.8 33,187 39.9,196.6 49.5,189.7 59.1,182.8 
		65.9,192.4 75.5,185.5 85.1,178.6 94.7,171.7 101.6,181.3 115.4,200.5 125,193.6 138.8,212.8 158,199 130.4,160.7 120.8,167.5 	"/>
	
		<rect x="87.2" y="72.4" transform="matrix(0.8125 -0.583 0.583 0.8125 -28.1918 68.9751)" class="st2" width="11.8" height="11.8"/>
	<path class="st2" d="M152.3,130.4l-6.9-9.6l-6.9-9.6l-6.9-9.6l9.6-6.9l-6.9-9.6l-6.9-9.6l9.6-6.9l-6.9-9.6l-9.6,6.9l-9.6,6.9l0,0
		l-9.6,6.9l0,0l-9.6,6.9l6.9,9.6l6.9,9.6l-9.6,6.9l6.9,9.6l9.6-6.9l6.9,9.6l-9.6,6.9l6.9,9.6l6.9,9.6l9.6-6.9l34.4,48l9.6-6.9
		l-13.8-19.2l9.6-6.9L152.3,130.4L152.3,130.4z M135.8,127.7l6.9,9.6l0,0L135.8,127.7l-6.9-9.6l0,0L135.8,127.7z"/>
	<polygon class="st2" points="111,72.8 120.6,65.9 130.2,59 123.3,49.4 113.7,56.3 104.1,63.2 104.1,63.2 94.5,70.1 101.4,79.7 
		111,72.8 	"/>
	<polygon class="st2" points="104.1,63.2 113.7,56.3 123.3,49.4 132.9,42.5 130,38.5 126,32.9 125.9,32.8 135.5,25.9 128.6,16.3 
		119,23.2 118.9,23.1 113.5,15.5 112,13.5 102.4,20.4 92.8,27.2 83.2,34.1 84.7,36.1 90.1,43.7 90.2,43.9 80.6,50.7 84.7,56.5 
		87.5,60.3 87.6,60.5 91.6,66.1 94.5,70.1 104.1,63.2 	"/>
	<rect x="80.3" y="62.8" transform="matrix(0.8125 -0.583 0.583 0.8125 -23.8807 63.156)" class="st2" width="11.8" height="11.8"/>
	<path class="st2" d="M224.9,49.2l-6.9-9.6l-9.6,6.9l-6.9-9.6l-9.6,6.9l6.9,9.6l0,0l-6.9-9.6l-9.6,6.9l-9.6,6.9l6.9,9.6l0,0
		l-9.6,6.9l6.9,9.6l-9.6,6.9l6.9,9.6l-9.6,6.9l6.9,9.6l-9.6,6.9l6.9,9.6l13.8,19.2l-9.6,6.9l13.8,19.2l19.2-13.8l-6.9-9.6l9.6-6.9
		L188,119.4l9.6-6.9l-6.9-9.6l-6.9-9.6l-6.9-9.6l0,0l6.9,9.6l6.9,9.6l9.6-6.9l9.6-6.9l-6.9-9.6l9.6-6.9l6.9,9.6l9.6-6.9l-6.9-9.6
		l0,0l6.9,9.6l9.6-6.9l-6.9-9.6l0,0L224.9,49.2z M196.2,69.9L196.2,69.9l-6.9-9.6l0,0L196.2,69.9z M212.7,72.6L212.7,72.6l-6.9-9.6
		l0,0L212.7,72.6z M215.4,56.1L215.4,56.1l-6.9-9.6l0,0L215.4,56.1z"/>
	
		<rect x="226.4" y="45.3" transform="matrix(0.8131 -0.5822 0.5822 0.8131 13.6036 144.8149)" class="st2" width="11.8" height="11.8"/>
	
		<rect x="221.8" y="77.7" transform="matrix(0.8125 -0.583 0.583 0.8125 -6.0129 148.4368)" class="st0" width="11.8" height="11.8"/>
	
		<rect x="205.4" y="74.9" transform="matrix(0.8125 -0.583 0.583 0.8125 -7.5206 138.3205)" class="st0" width="11.8" height="11.8"/>
	
		<rect x="202.6" y="91.4" transform="matrix(0.8125 -0.583 0.583 0.8125 -17.6368 139.8282)" class="st0" width="11.8" height="11.8"/>
	
		<rect x="193" y="98.3" transform="matrix(0.8125 -0.583 0.583 0.8125 -23.4492 135.5265)" class="st0" width="11.8" height="11.8"/>
	
		<rect x="73.5" y="53.3" transform="matrix(0.8125 -0.583 0.583 0.8125 -19.6007 57.3709)" class="st0" width="11.8" height="11.8"/>
	
		<rect x="66.6" y="43.6" transform="matrix(0.8125 -0.583 0.583 0.8125 -15.2734 51.5235)" class="st0" width="11.8" height="11.8"/>
	<rect x="76.2" y="36.8" transform="matrix(0.8125 -0.583 0.583 0.8125 -9.4844 55.8633)" class="st0" width="11.8" height="11.8"/>
	<rect x="78.7" y="20" transform="matrix(0.8125 -0.583 0.583 0.8125 0.767 54.1735)" class="st0" width="11.8" height="11.8"/>
	<rect x="88.3" y="13.1" transform="matrix(0.8125 -0.583 0.583 0.8125 6.5786 58.4804)" class="st0" width="11.8" height="11.8"/>
	<rect x="97.9" y="6.2" transform="matrix(0.8125 -0.583 0.583 0.8125 12.3968 62.7802)" class="st0" width="11.8" height="11.8"/>
	<rect x="114.6" y="9.2" transform="matrix(0.8125 -0.583 0.583 0.8125 13.7777 73.0773)" class="st0" width="11.8" height="11.8"/>
	<rect x="124.2" y="2.3" transform="matrix(0.8125 -0.583 0.583 0.8125 19.5874 77.3783)" class="st0" width="11.8" height="11.8"/>
	
		<rect x="130.9" y="11.8" transform="matrix(0.8125 -0.583 0.583 0.8125 15.3674 83.0921)" class="st0" width="11.8" height="11.8"/>
	<rect x="128.2" y="28.3" transform="matrix(0.8125 -0.583 0.583 0.8125 5.2316 84.6161)" class="st0" width="11.8" height="11.8"/>
	<rect x="125.6" y="44.9" transform="matrix(0.8125 -0.583 0.583 0.8125 -4.9355 86.191)" class="st0" width="11.8" height="11.8"/>
	
		<rect x="132.5" y="54.5" transform="matrix(0.8125 -0.583 0.583 0.8125 -9.2563 92.0338)" class="st0" width="11.8" height="11.8"/>
	
		<rect x="140.9" y="106.7" transform="matrix(0.8125 -0.583 0.583 0.8125 -38.101 106.6779)" class="st0" width="11.8" height="11.8"/>
	
		<rect x="134" y="97.1" transform="matrix(0.8125 -0.583 0.583 0.8125 -33.7935 100.8637)" class="st0" width="11.8" height="11.8"/>
	
		<rect x="136.7" y="80.6" transform="matrix(0.8125 -0.583 0.583 0.8125 -23.6773 99.356)" class="st0" width="11.8" height="11.8"/>
	<rect x="129.8" y="71" transform="matrix(0.8125 -0.583 0.583 0.8125 -19.3726 93.5414)" class="st0" width="11.8" height="11.8"/>
	
		<rect x="81.8" y="105.4" transform="matrix(0.8125 -0.583 0.583 0.8125 -48.4471 72.0258)" class="st0" width="11.8" height="11.8"/>
	
		<rect x="91.4" y="98.5" transform="matrix(0.8125 -0.583 0.583 0.8125 -42.6289 76.3256)" class="st0" width="11.8" height="11.8"/>
	
		<rect x="84.5" y="88.9" transform="matrix(0.8125 -0.583 0.583 0.8125 -38.3272 70.5132)" class="st0" width="11.8" height="11.8"/>
	
		<rect x="77.7" y="79.3" transform="matrix(0.8125 -0.583 0.583 0.8125 -34.0252 64.6981)" class="st0" width="11.8" height="11.8"/>
	
		<rect x="70.8" y="69.7" transform="matrix(0.8125 -0.583 0.583 0.8125 -29.7205 58.8835)" class="st0" width="11.8" height="11.8"/>
	
		<rect x="168.2" y="43.4" transform="matrix(0.8125 -0.583 0.583 0.8125 3.8859 110.7604)" class="st0" width="11.8" height="11.8"/>
	
		<rect x="177.8" y="36.6" transform="matrix(0.8125 -0.583 0.583 0.8125 9.6953 115.0642)" class="st0" width="11.8" height="11.8"/>
	
		<rect x="187.4" y="29.7" transform="matrix(0.8125 -0.583 0.583 0.8125 15.5135 119.364)" class="st0" width="11.8" height="11.8"/>
	<rect x="197" y="22.8" transform="matrix(0.8125 -0.583 0.583 0.8125 21.3335 123.6696)" class="st0" width="11.8" height="11.8"/>
</g>
</svg>
